<?xml version="1.0" encoding="utf-8"?>
<!-- Generator: Adobe Illustrator 17.0.0, SVG Export Plug-In . SVG Version: 6.00 Build 0)  -->
<!DOCTYPE svg PUBLIC "-//W3C//DTD SVG 1.1//EN" "http://www.w3.org/Graphics/SVG/1.1/DTD/svg11.dtd">
<svg version="1.1" id="Layer_1" xmlns="http://www.w3.org/2000/svg" xmlns:xlink="http://www.w3.org/1999/xlink" x="0px" y="0px"
	 width="1920px" height="1080px" viewBox="0 0 1920 1080" enable-background="new 0 0 1920 1080" xml:space="preserve">
<polyline fill="none" stroke="#010101" stroke-miterlimit="10" points="1227.5,878.7 1188.5,860.6 1119.9,824.4 1041.8,777.7 
	860.8,665.3 680.8,567.2 585.6,523.4 420.8,447.2 227.4,353.8 "/>
<polyline fill="none" stroke="#010101" stroke-miterlimit="10" points="938,882.9 926.6,786.7 910.4,620.3 894.2,-93.9 "/>
<polyline fill="none" stroke="#010101" stroke-miterlimit="10" points="1742.5,842.3 1732.4,842.3 1682.8,842.3 1598.4,828.6 
	1419.9,788.2 1301.8,750.1 1266.2,722.8 1218.6,665.1 1161.4,584.3 1129.4,539.9 1107,518.4 1085.2,505.1 1062.4,495.6 
	1037.6,489.5 1014.2,489.5 889.8,492.3 834.5,492.3 803.7,489.5 741.8,479 595.1,453.8 573.2,451.4 537,456.1 507.5,462.8 
	462.7,483.7 419.8,515.2 "/>
<polyline fill="none" stroke="#010101" stroke-miterlimit="10" points="1086.2,91.1 1078.2,227.7 1071,305.8 1061.4,361.6 
	1032.9,482 1025.2,561.1 1016.7,623 997.2,696.4 984.8,719.2 961,748.4 942.4,759.8 916.6,764 900.1,764 814.4,732.6 723.3,699.2 
	579.5,662.1 "/>
<polyline fill="none" stroke="#010101" stroke-miterlimit="10" points="572.6,679.4 603.7,580 603.7,557.1 603.7,521.8 589.8,468.5 
	561.2,366 537.6,302.2 517.4,278.4 470.3,225 237,-28.4 "/>
<polyline fill="none" stroke="#010101" stroke-miterlimit="10" points="342.1,523.8 316,438.6 241.7,296.1 "/>
<polyline fill="none" stroke="#010101" stroke-miterlimit="10" points="1742.5,690.6 1699.6,660.2 1643.2,617.1 1600,573.5 
	1568.9,533.1 1537.7,490.6 1498.4,464.9 1474.2,443.5 1460.9,423 1445.7,395.2 1426.6,346.4 1394.2,310.6 1301.5,231.1 1210,169.2 
	1100.9,100 1018.9,63.5 964.3,51.5 903.7,45.7 832.8,51.5 757.4,67.6 693.8,91.7 624.6,129.2 545.2,188.2 479.3,220.1 377,259.1 
	274.1,291.5 234.1,319.7 "/>
<polyline fill="none" stroke="#010101" stroke-miterlimit="10" points="738.7,270.5 706.3,299.1 689.2,310 658.1,321.4 618.1,327.7 
	562.9,332.9 445.7,341.4 423.8,344.3 393,358.6 370.5,378.6 290.5,503.4 "/>
<polyline fill="none" stroke="#010101" stroke-miterlimit="10" points="731.3,270.5 695.1,296.1 680.4,301 663.7,302.7 640.8,299.5 
	574.1,276.6 536,265.2 514.5,256.5 505.9,256.5 431.6,325.6 439.3,407 436,422.8 431.6,433.6 425.5,439 389.4,442.8 338.9,445.1 
	237,459.5 "/>
<polyline fill="none" stroke="#010101" stroke-miterlimit="10" points="972.3,356.3 946.4,381.8 931.9,387 916.1,391 892.3,396.7 
	861.4,399.5 847.3,399.5 825.6,396.7 810.4,394.6 789.8,394.6 749,396.7 727.5,402.4 699.9,413.1 665.2,420.9 592.2,418.6 
	442.7,407.5 "/>
<polyline fill="none" stroke="#010101" stroke-miterlimit="10" points="1495.8,469.1 1378.8,632.5 1309.5,738.1 1219.5,882.9 "/>
<polyline fill="none" stroke="#010101" stroke-miterlimit="10" points="891.5,174.5 872.8,172.8 845,170 820.6,164.2 799.3,157.8 
	773.4,153.2 754.5,153.2 738.7,157.8 721.8,164.2 701.4,181.4 686.1,203.5 678.9,222.9 677.4,244.3 678.9,263.3 686.1,281.8 
	691.5,291.5 707.5,311.7 716.2,317.2 727.5,323.9 738.7,328.1 747.1,330.4 762,332.7 775.3,332.7 799.3,328.1 814.2,319.7 
	849.2,300.7 891.5,288.6 922,283.1 970.8,280.5 1004.3,285.8 1028.7,291.5 1064.5,306.4 1103.7,328.1 1137.6,353.8 1164.3,375.7 
	1189.8,403.9 1206.6,431.3 1219.5,451.4 1250.4,508.7 1291.7,581.9 1309.5,603.6 1362,649.7 1459.2,685.3 1545.3,712.9 
	1613.5,747.6 1742.5,776.2 "/>
<polyline fill="none" stroke="#010101" stroke-miterlimit="10" points="1537.5,559 1459.4,676 1423.2,778.7 1398.4,878.7 "/>
<line fill="none" stroke="#010101" stroke-miterlimit="10" x1="1677.1" y1="679.6" x2="1681.5" y2="687.2"/>
<polyline fill="none" stroke="#010101" stroke-miterlimit="10" points="1464.1,509.5 1598.4,606.6 1655.6,663.8 1677.1,679.6 
	1681.5,687.2 1687.2,707 "/>
<polyline fill="none" stroke="#010101" stroke-miterlimit="10" points="1586.6,882.9 1601.3,810.5 1610.4,759 1621.5,724.4 
	1631,697.1 1672.7,639.6 "/>
<polyline fill="none" stroke="#010101" stroke-miterlimit="10" points="1086.2,171.3 1125.6,213.8 1143.7,239.3 1198,349.8 
	1248.5,455.2 1271,502.8 1293.3,539.6 1319.9,583.4 1364.3,623.8 1380.3,636.7 1475.6,667.6 1546.6,690.6 1620.9,711 "/>
<polyline fill="none" stroke="#010101" stroke-miterlimit="10" points="767.1,285 765.2,327.9 763.3,339.5 759.9,356.3 755.1,373.2 
	749,388.7 740.8,415.2 737.4,429.4 736.1,441.1 738.7,459.5 743.1,492.3 751.9,590.1 748.1,654.8 720.8,779.4 "/>
<line fill="none" stroke="#010101" stroke-miterlimit="10" x1="601.8" y1="503.4" x2="738.7" y2="500.5"/>
<line fill="none" stroke="#010101" stroke-miterlimit="10" x1="686" y1="472.7" x2="686.9" y2="500.5"/>
<line fill="none" stroke="#010101" stroke-miterlimit="10" x1="657" y1="467.5" x2="658" y2="500.5"/>
<polyline fill="none" stroke="#010101" stroke-miterlimit="10" points="804.1,568.5 813.6,565.7 827.1,568.5 861.4,574.8 
	872.8,577.7 882.7,579.4 885,584.1 887.1,590.8 888.8,654.3 887.1,657.7 878.4,657.7 867.5,657.7 859.3,654.3 855.1,648.5 
	848.5,632 838.9,610.1 831.3,590.8 827.1,585.7 822.2,584.1 756.1,583.2 "/>
<polyline fill="none" stroke="#010101" stroke-miterlimit="10" points="794.2,556.7 790,556.7 781.4,556.7 774.3,554.6 769.6,551 
	765.8,544.7 764.3,538.4 764.3,532.1 767.1,526.2 771.9,520.5 776.6,516.7 783.7,515.2 790,515.2 798.4,518 803.7,523.2 
	806.2,529.5 807.9,534.8 806.2,542.2 805,547.2 797,554.6 806.2,574.2 818,610.1 827.1,640.4 815.5,721.3 "/>
<polyline fill="none" stroke="#010101" stroke-miterlimit="10" points="945.6,54.1 945.6,67.5 945.6,117.8 945.6,142.9 945.6,156.8 
	947.1,171.3 957.8,193.4 969.4,205.6 985.6,213.6 996.3,216.3 1008.7,216.3 1032.3,210.7 1051.5,196.8 1060.3,183.3 1064.5,171.3 
	1066,156.8 1064.5,142.9 1060.3,131.1 1051.5,117.8 1039.1,106.3 1021.4,98.7 1004.7,93.7 982.2,91.1 956.7,91.1 939.5,93.7 
	908.5,103.7 884.3,109 868.1,109 853.6,105.9 826.9,101.4 802.2,101.4 763.3,105.9 731.3,114.7 698.9,129.9 666.5,150.7 635.5,177 
	601.4,207.5 576.4,230 552.6,249 516,271.9 "/>
<polyline fill="none" stroke="#010101" stroke-width="0.5" stroke-miterlimit="10" points="1277.5,674.3 1271.7,671.6 1262,661.5 
	1251.4,647.8 1241.6,635.2 1231.5,620.2 1227.5,606.6 1227.5,598.8 1227.5,576 1227.5,542.8 1224.9,525.7 1219.5,511.6 1203,482.8 
	1188.3,457.6 1175.3,435.5 1166.6,422.6 1149.8,405.8 1149.8,404.7 1139.9,397.2 1123.7,388.7 1105.8,381.8 1086.2,376.3 
	1072.1,376.3 1045,375.1 1022.6,372.5 1000.1,366.2 974,351.3 948.3,328.3 933.4,308.7 925,293.4 917.8,269.8 916.1,260.3 
	914.4,239.9 914.4,238.2 916.1,224.4 921.6,212.6 928.5,202.7 950.2,188.6 "/>
<line fill="none" stroke="#010101" stroke-width="0.5" stroke-miterlimit="10" x1="1159.5" y1="590.1" x2="1108.9" y2="667"/>
<polyline fill="none" stroke="#010101" stroke-width="0.5" stroke-miterlimit="10" points="1027.5,597.1 1061.2,608.2 1077.6,618.3 
	1095.9,642.8 1162.2,738.1 1219.5,820 1244.1,834.7 "/>
<line fill="none" stroke="#010101" stroke-width="0.5" stroke-miterlimit="10" x1="1495.8" y1="878.7" x2="1515.2" y2="787.6"/>
<polyline fill="none" stroke="#010101" stroke-width="0.5" stroke-miterlimit="10" points="1440.9,394.4 1411.8,437.1 1327.9,569.1 
	1313.3,597.1 1295.6,616.3 1267,635.2 1237.6,654.8 1216.1,674.3 1167.2,748.2 1134.2,814.9 1127.2,825.2 1116.5,878.7 "/>
<polyline fill="none" stroke="#010101" stroke-width="0.5" stroke-miterlimit="10" points="1246.6,459.5 1228.3,467.5 1190.8,486.6 
	1159.5,506.2 1140.5,520.3 1127.2,543.2 1090.4,630.1 "/>
<polyline fill="none" stroke="#010101" stroke-width="0.5" stroke-miterlimit="10" points="1742.5,822.5 1700.6,822.5 1611,817.5 
	1546.2,803.4 1464.1,783.8 1315.2,743.2 "/>
<polyline fill="none" stroke="#010101" stroke-width="0.5" stroke-miterlimit="10" points="1677.1,878.7 1677.1,868.2 1687.2,822.5 
	1700.6,782.9 1714.6,745.7 1745.7,696.7 "/>
<polyline fill="none" stroke="#010101" stroke-width="0.5" stroke-miterlimit="10" points="1391.9,878.7 1252.3,849.9 1227.5,842.3 
	1185.6,783.8 1090.4,651 1070,623.8 1061.2,618.3 1041.4,611.8 985.6,600.9 918.9,587.6 891.7,576.1 873.8,572.9 851.7,569.1 
	832.8,565.7 815.5,559 "/>
<polyline fill="none" stroke="#010101" stroke-width="0.5" stroke-miterlimit="10" points="330.3,276.6 334.9,291.9 339.6,305.6 
	337.2,305.6 319.8,309.4 309.7,311.1 297.5,313.2 290.5,316.3 284.8,319.3 282.3,323.9 281,331.1 282.3,336.5 284.8,341.6 
	287.6,344.7 292,348.3 298.9,348.3 303.8,350.8 325.5,356.3 344.6,362 352.2,366.4 361.7,374.6 371.3,383.9 374.5,388.7 
	378.9,395.5 382.1,402.8 387.3,408.3 393.5,413.8 401,417.3 410.1,417.3 420,415 425.5,408.3 429.4,399.3 429.4,388.7 426.7,364.9 
	421.5,336.5 418.3,325.6 414.3,313.2 411.3,305.6 406.5,290 402.9,285.2 399.1,284.3 393.5,284.3 387.3,286.4 377,293.4 
	365.5,298.7 352.2,302.9 339.6,305.6 "/>
<polyline fill="none" stroke="#010101" stroke-width="0.5" stroke-miterlimit="10" points="371.4,309.6 385.7,306.6 393.2,308.1 
	396.8,309.6 401.2,318 408,339.1 387.1,352.3 373.9,362 387.1,374.8 393.2,379.7 399.1,381.6 404.6,382.8 411.8,382.2 418.7,379.7 
	423.3,379.7 428.2,377.2 428.2,390 429.4,400.5 425.7,407.5 424.6,402.8 423.3,398.8 420.2,395.2 415.3,392.1 410.1,392.1 
	404.6,395.2 401.2,400.5 401.2,406.4 394.9,403.9 391.3,400.5 387.1,395.2 380.4,388.3 366.3,373.4 342.1,350.4 326.5,334.9 
	318.7,326.6 313,320.8 304.4,314 301.7,312.1 322.5,308.1 339.6,305.2 343.6,314 348.6,314 350.9,316.3 371.4,309.6 383.6,342.8 
	387.1,352.3 373.9,362 364.6,350.4 355.3,336.1 348.6,323.9 346.1,325.2 341.5,322.6 339.6,319.7 341.5,315.1 343.6,314 
	339.6,305.2 "/>
<polyline fill="none" stroke="#010101" stroke-width="0.5" stroke-miterlimit="10" points="680.2,266.7 670.9,266.7 660.6,264.8 
	652.6,260.8 644.4,253.4 620,229.4 587.5,198 568,178.3 558.9,172.4 543.5,168.4 526.7,168.4 502.7,172.4 483.1,179.7 471.1,186.3 
	460.8,194.3 452.6,199.1 435.8,205.6 426.7,210.3 421.5,214.9 414.9,222.5 410.7,229.4 407.6,241.2 407.6,269.4 340.6,289.4 
	259.4,312.3 257.1,306.6 "/>
<polyline fill="none" stroke="#010101" stroke-width="0.5" stroke-miterlimit="10" points="735.5,213.2 708.8,200.4 670,171.3 
	629.4,126.5 "/>
<polyline fill="none" stroke="#010101" stroke-width="0.5" stroke-miterlimit="10" points="673.6,102.5 694.1,128.8 717.6,156.8 
	731.3,180.4 744.1,206.9 "/>
<polyline fill="none" stroke="#010101" stroke-width="0.5" stroke-miterlimit="10" points="728.8,140.4 720.8,126.5 698.9,91.1 "/>
<polyline fill="none" stroke="#010101" stroke-width="0.5" stroke-miterlimit="10" points="707.7,176.1 684.6,150.7 651.7,114.5 "/>
<polyline fill="none" stroke="#010101" stroke-width="0.5" stroke-miterlimit="10" points="728.8,228.8 702.3,218.5 677.4,204.1 
	655.5,188.6 635.7,171.3 608.4,141.2 "/>
<line fill="none" stroke="#010101" stroke-width="0.5" stroke-miterlimit="10" x1="731.3" y1="77.6" x2="741.2" y2="137.6"/>
<polyline fill="none" stroke="#010101" stroke-width="0.5" stroke-miterlimit="10" points="658.9,191.1 673.6,174 692.1,158.9 
	710.5,148.2 728.8,140.4 751.9,133.6 "/>
<polyline fill="none" stroke="#010101" stroke-width="0.5" stroke-miterlimit="10" points="760.4,200.8 762.3,185 760.4,171.3 
	755.9,156.8 753.6,145.4 751.9,133.6 753.6,119.3 758.3,107.3 762.3,92.6 762.3,81.7 758.3,67.5 "/>
<polyline fill="none" stroke="#010101" stroke-width="0.5" stroke-miterlimit="10" points="762.3,83.1 735.5,93.2 707.7,104 
	683.9,115.7 662.7,128 662.7,126.5 642.5,141.2 622.5,156.8 "/>
<polyline fill="none" stroke="#010101" stroke-width="0.5" stroke-miterlimit="10" points="881.8,47.6 874.9,67.5 870.9,80.4 
	869.4,93.2 866.5,105.9 867.9,126.5 867.9,143.1 870.9,156.8 873.8,168.4 876.1,182.3 876.1,195.1 873.8,206.9 867.9,220.8 
	857,234.7 845,246 832.8,251.3 809.8,254.7 "/>
<polyline fill="none" stroke="#010101" stroke-width="0.5" stroke-miterlimit="10" points="848.5,50.3 848.5,87.1 848.5,137.6 
	848.5,163.1 848.5,181.8 845.8,193.6 841.2,206.9 832.8,220.3 821.4,232.6 809.8,238.5 "/>
<polyline fill="none" stroke="#010101" stroke-width="0.5" stroke-miterlimit="10" points="975.9,352.5 986.2,339.3 995.1,325.6 
	1005,294.6 1005.4,282.2 1005,254.7 1006,176.1 "/>
<polyline fill="none" stroke="#010101" stroke-width="0.5" stroke-miterlimit="10" points="1028.3,236.1 1028.3,246.9 1028.3,265.6 
	1027.1,282.4 1029.4,313.8 1029.4,335.5 1024.7,358 1020.5,371.9 "/>
<polyline fill="none" stroke="#010101" stroke-width="0.5" stroke-miterlimit="10" points="744.1,411.9 791.3,427.5 824.1,433.8 
	838.9,433.8 838.9,406.6 887.5,403.9 1006,397.1 1033.6,397.1 1046,399.3 1067.9,408.5 1076.5,415.5 1082.8,425.6 1087.9,438 
	1090.4,449.1 1089.1,461.8 1082.8,485.3 1078,502 "/>
<polyline fill="none" stroke="#010101" stroke-width="0.5" stroke-miterlimit="10" points="894.2,394.4 886.9,363.1 876.6,340.9 
	866,323.7 854.7,310.4 832.8,290.4 821.4,282.7 797.6,270.5 "/>
<polyline fill="none" stroke="#010101" stroke-width="0.5" stroke-miterlimit="10" points="862.2,319.3 835.1,341.2 812.6,352.5 
	802.2,356.3 761.2,358 "/>
<polyline fill="none" stroke="#010101" stroke-width="0.5" stroke-miterlimit="10" points="783.1,282.2 800.8,324.1 802.4,348.5 
	804.6,388.7 "/>
<polyline fill="none" stroke="#010101" stroke-width="0.5" stroke-miterlimit="10" points="703.3,251.7 705.4,264.3 713.8,278.6 
	723.1,290.4 738.7,300.5 761.2,307.1 774.5,307.1 787.9,304.1 809.8,292.7 820.3,282.2 "/>
<polyline fill="none" stroke="#010101" stroke-width="0.5" stroke-miterlimit="10" points="783.1,200.8 783.1,145.4 783.1,99.5 
	783.1,63.6 "/>
<polyline fill="none" stroke="#010101" stroke-width="0.5" stroke-miterlimit="10" points="793.8,206.9 802,192.8 804.6,186.3 
	805.8,173.8 804.6,153.2 804.6,132.2 804.6,94.7 804.6,57.5 "/>
<polyline fill="none" stroke="#010101" stroke-width="0.5" stroke-miterlimit="10" points="803.9,219.1 812.3,212.1 818.7,202 
	822.2,195.9 826,186.3 826.7,172.4 826.7,151.1 826,132.2 827.3,107.7 827.3,87.5 827.3,54.1 "/>
<polyline fill="none" stroke="#010101" stroke-width="0.5" stroke-miterlimit="10" points="725.6,249 725.6,238.5 728.8,226.3 
	733.4,215.9 742.9,206.9 758.2,200.8 770,199.7 781.8,202 788.3,205.4 796.3,210.3 801.8,217 805.8,224.1 809.8,232.4 809.8,243.9 
	809.8,251.7 805.8,262.5 799.9,271.9 789.6,279.3 779.5,283.7 772.3,285 762.3,285 750.9,282.2 742.9,278 735.5,270.5 731.3,264.3 
	727.5,256.5 725.6,250.4 715.7,250.4 700.8,250.4 687.9,247.9 673.6,240.4 658.9,228.8 645.6,213.2 634.5,200.8 620.2,185 
	611.7,177.6 600.8,170 591.3,168.4 573.6,160.2 557.6,156.8 540.8,156.8 528.4,158.5 519.8,160.2 511.7,159.3 499.8,158.5 
	489.4,159.7 476.4,168.4 464.6,177.6 454.1,186.5 438.5,198.9 420.2,198.9 405.9,202.3 392.6,208.4 374.1,222.7 334.5,256.5 
	329,261.2 329,265.6 330.3,276.6 "/>
<polyline fill="none" stroke="#010101" stroke-width="0.5" stroke-miterlimit="10" points="1076.1,229.6 1061.2,230.2 1044.5,232.1 
	1032.1,235.3 1014.8,238.5 997.8,238.5 983.7,236.1 974.6,232.8 962.9,227.5 951.5,219.1 936.5,202.3 931.7,193.8 931.7,193 
	926.9,180.2 924.7,172.1 923.1,160.2 923.1,149.8 922.4,142.1 920.3,128 918,117.8 917,111.8 915.1,97 915.1,88.8 916.1,77.6 
	918,63.6 922.4,47.6 "/>
<polyline fill="none" stroke="#010101" stroke-width="0.5" stroke-miterlimit="10" points="989,162.9 992.5,168.6 998,173 
	1003.1,174.5 1010.4,174.5 1016.1,171.3 1020.5,166.9 1022.9,162.3 1023.7,156.8 1022.2,151.1 1020.5,147.1 1018.4,144.4 
	1016.1,141.9 1012.1,140 1006,139.5 1000.5,139.5 995.5,140.8 992.5,143.1 989.6,147.1 988.3,152.2 988.3,160.6 968.7,165.4 
	951.7,168.6 930.2,171.3 891.5,174.5 "/>
<polyline fill="none" stroke="#010101" stroke-width="0.5" stroke-miterlimit="10" points="920.7,117.2 936.5,117.2 963.5,117.2 
	989,117.2 1010,117.2 1019.1,119.8 1028.1,124.4 1038.4,132.2 1044.1,144.4 1045,160.6 1043,168.4 1033.6,185 1022.6,191.5 
	1011.5,194.3 994.2,194.3 983.9,188.6 975.9,181.6 970.4,174.5 966.9,162.3 966.9,153.2 966.9,139.5 966.9,118.9 966.9,98.3 
	966.9,77.6 966.6,54.1 "/>
<polyline fill="none" stroke="#010101" stroke-width="0.5" stroke-miterlimit="10" points="1082.4,109.6 1063,99.7 1033.4,86.5 
	1004.9,76.2 975.9,69.7 952.3,65.5 918.9,63.6 "/>
<polyline fill="none" stroke="#010101" stroke-width="0.5" stroke-miterlimit="10" points="950.2,281.6 950.2,268.5 952.8,247.7 
	957.6,233 965,214 974.6,197.2 991.3,171.3 "/>
<polyline fill="none" stroke="#010101" stroke-width="0.5" stroke-miterlimit="10" points="1072.9,285 1050.2,276.1 1034.8,270.5 
	1014.6,265.6 991.3,260.3 975.9,259.5 959.1,258.7 942.7,258.7 916.1,260.3 "/>
<polyline fill="none" stroke="#010101" stroke-width="0.5" stroke-miterlimit="10" points="996.8,139.5 989.8,122.5 984.1,101.4 
	982.9,81.2 982.9,68.2 985.4,56.2 "/>
<polyline fill="none" stroke="#010101" stroke-width="0.5" stroke-miterlimit="10" points="1012.1,140 1016.9,129.6 1025,109.6 
	1031.1,94.1 1039.1,72.4 "/>
<polyline fill="none" stroke="#010101" stroke-width="0.5" stroke-miterlimit="10" points="1038.4,132.2 1047,121.9 1061,104.4 
	1067.5,85.2 "/>
<polyline fill="none" stroke="#010101" stroke-width="0.5" stroke-miterlimit="10" points="787.9,514 791.5,489.1 800.8,489.1 
	886.9,492.3 887.5,403.9 "/>
<polyline fill="none" stroke="#010101" stroke-width="0.5" stroke-miterlimit="10" points="827.1,632.3 903.3,635.2 919.1,637.9 
	925.8,641.3 932.7,650.8 935.3,661.7 932.7,672.5 929.4,684.7 931.5,694.7 941.6,703.8 957,712.6 969.2,715.8 978.8,720 
	1126.6,813.9 1224.9,861.2 "/>
<polyline fill="none" stroke="#010101" stroke-width="0.5" stroke-miterlimit="10" points="982.9,317.4 988.3,319.9 1001.4,326 
	1025,332.5 1055.5,337 1086.2,343.3 1109.8,350.8 1117.6,356.3 1120.9,360.5 "/>
<polyline fill="none" stroke="#010101" stroke-width="0.5" stroke-miterlimit="10" points="1050,300.5 1050,270.5 1050,246.5 
	1042.8,226.3 1023.7,204.2 1018.9,194.3 "/>
<polyline fill="none" stroke="#010101" stroke-width="0.5" stroke-miterlimit="10" points="986.9,214 980.8,229.8 973.6,254.7 
	972.3,273.2 970.8,301.4 "/>
<polyline fill="none" stroke="#010101" stroke-width="0.5" stroke-miterlimit="10" points="1006,251.3 1072.9,254.7 1076.1,207.5 
	1079.9,144.2 1060.3,141.8 1054.8,143.1 1039.1,145.6 1022.2,151.1 "/>
<polyline fill="none" stroke="#010101" stroke-width="0.5" stroke-miterlimit="10" points="1016.1,171.3 1029.4,182.7 1036.7,190.5 
	1050,198 1029.4,210.9 1022.4,201.6 1018.9,192.4 994.2,194.3 981.6,186.5 969.4,205.6 960.3,226.3 954.9,241 915.1,232.3 "/>
<polyline fill="none" stroke="#010101" stroke-width="0.5" stroke-miterlimit="10" points="945.6,49.7 945.6,117.8 918,117.8 
	921,133.6 922.7,145.2 964.1,145.2 990.9,145.4 "/>
<polyline fill="none" stroke="#010101" stroke-width="0.5" stroke-miterlimit="10" points="1227.5,603.4 1246.6,605.1 1257.5,610.1 
	1264.3,619.4 1274.6,630.1 1307.6,603.4 1322.6,579.2 1437.7,399.2 1445.3,390.4 1443.8,390.4 1437.7,368.3 1428.5,351.3 
	1402.4,321.8 1404.3,321.8 1333.7,258.7 1181.6,151.1 1097.6,97.6 1067.5,85.2 1063.3,97.6 1058.6,107.5 1050,116.2 1039.1,106.3 
	1028.1,101.6 1020.5,120.6 1010,117.2 1007.9,112.2 1005,102.7 1004.3,85.2 1004.3,74.1 1006,60.6 "/>
<polyline fill="none" stroke="#010101" stroke-width="0.5" stroke-miterlimit="10" points="894.2,-92.8 896.8,-22.1 897.8,63.6 
	901.2,219.1 905.4,340.9 905.4,402.8 838.9,406.6 838.9,433.8 886.9,434.2 886.9,492.3 830.5,491.9 790.3,487.2 790.3,497.5 
	819.7,502 841.2,502 859.3,502 859.9,560.7 858.7,583.4 855.9,592.1 850,600.5 843.7,607.8 832.8,611.8 819.7,615.6 815.5,559 
	805.2,555.8 "/>
<polyline fill="none" stroke="#010101" stroke-width="0.5" stroke-miterlimit="10" points="783.7,283.3 799.1,320.1 801,327.1 
	808.4,322.9 818.5,317.4 825.8,335.3 830.2,343.7 841.2,336.3 847.9,345.4 852.3,352.5 854.5,360.5 856.5,369.2 825.8,370.4 
	797.6,370.4 775.9,368.3 757.8,363.5 "/>
<polyline fill="none" stroke="#010101" stroke-width="0.5" stroke-miterlimit="10" points="982.9,317.4 995.5,324.1 979.5,347.7 
	947.5,373.1 919.3,383.9 897,388.7 875.5,393.1 858,393.1 832.8,393.1 804.6,389.8 774.5,382.2 754.3,375.3 "/>
<polyline fill="none" stroke="#010101" stroke-width="0.5" stroke-miterlimit="10" points="858.7,368.3 887.5,368.3 887.5,367 
	885.8,360.5 876.6,340.9 852.3,352.5 856.5,369.2 863.5,393.1 "/>
<polyline fill="none" stroke="#010101" stroke-width="0.5" stroke-miterlimit="10" points="783.1,282.2 791.5,302 799.1,320.1 
	801,327.1 818.5,317.4 829.8,342.8 831.5,342.8 831.5,367 832.8,393.1 "/>
<polyline fill="none" stroke="#010101" stroke-width="0.5" stroke-miterlimit="10" points="802.2,356.3 801,327.1 783.1,331.1 
	764.4,332.5 767.1,285 768.4,285 760.1,285 750.9,282.2 749.8,281.6 742.9,292.7 738.7,304.1 727.5,323.9 "/>
<polyline fill="none" stroke="#010101" stroke-width="0.5" stroke-miterlimit="10" points="867.9,131.1 844.1,131.1 823.7,131.1 
	802.2,131.1 783.1,132.2 783.1,180.1 799.9,186 818.2,198.3 832.8,214 841.2,234.2 844.1,246.4 "/>
<polyline fill="none" stroke="#010101" stroke-width="0.5" stroke-miterlimit="10" points="981.6,186.5 971.5,176.1 955.5,187.5 
	955.5,188.6 948.3,169.2 911.3,172.8 887.9,174.1 847.9,170.3 848.6,131.1 825.4,131.1 827.3,87.5 870.2,86.7 874.7,69.9 
	874.7,63.6 837.2,67.5 808.3,72.4 783.9,77.6 "/>
<line fill="none" stroke="#010101" stroke-width="0.5" stroke-miterlimit="10" x1="808.6" y1="534.8" x2="822.4" y2="535.2"/>
<line fill="none" stroke="#010101" stroke-width="0.5" stroke-miterlimit="10" x1="822.4" y1="535.2" x2="850.7" y2="535.8"/>
<line fill="none" stroke="#010101" stroke-width="0.5" stroke-miterlimit="10" x1="850.7" y1="535.8" x2="870" y2="535.8"/>
<line fill="none" stroke="#010101" stroke-width="0.5" stroke-miterlimit="10" x1="870" y1="535.8" x2="885" y2="535.8"/>
<line fill="none" stroke="#010101" stroke-width="0.5" stroke-miterlimit="10" x1="885" y1="535.8" x2="888.8" y2="535"/>
<line fill="none" stroke="#010101" stroke-width="0.5" stroke-miterlimit="10" x1="888.8" y1="535" x2="890.7" y2="532.1"/>
<polyline fill="none" stroke="#010101" stroke-width="0.5" stroke-miterlimit="10" points="802.7,482.4 806.4,470.4 812.3,456.3 
	819.5,448.1 827.9,449.4 842.4,452.7 864.1,456.3 887.5,456.3 887.5,491.6 856.3,492.1 821.6,491.2 790.9,487.4 790.9,497.7 
	796.4,498.4 811.1,500.7 821.6,502 830.7,502 850,502 865.2,502 876.6,502.8 886.2,503.7 888.8,505.3 890.7,509.1 890.7,532.1 "/>
<polyline fill="none" stroke="#010101" stroke-width="0.5" stroke-miterlimit="10" points="988.3,164.8 975.1,170.7 955.7,176.1 
	943.3,179.5 934,183.1 920.7,190.3 906.4,199.7 895.7,212.6 890.4,220.8 886.9,229.8 885.4,237.4 881.8,247.3 875.9,254.7 
	867.9,260.6 860.5,264.3 854.5,266.2 849.4,266.2 846,265 841,262.9 834.4,260.6 829.8,260.6 822.4,261.4 818.4,259.9 815.7,257.8 
	"/>
<line fill="none" stroke="#010101" stroke-width="0.5" stroke-miterlimit="10" x1="992.5" y1="168.6" x2="991.3" y2="171.3"/>
<polyline fill="none" stroke="#010101" stroke-width="0.5" stroke-miterlimit="10" points="982,186 991.3,171.3 992.5,168.6 
	988.3,160.6 968.7,165.4 946.7,169.2 924.7,172.1 897.4,174 874.7,173.8 876.1,182.3 876.1,193 875.5,198.3 864.8,197.2 
	848.5,195.3 839.7,193 825.2,188.6 "/>
<polyline fill="none" stroke="#010101" stroke-width="0.5" stroke-miterlimit="10" points="1062.4,453.1 1059.5,468.9 1079.3,473.3 
	1109.1,479.2 1109.1,480.7 1106,493.3 1101.2,507 1098.4,513.1 1078.4,500.9 1086.6,471.2 1089.4,459.5 1078.2,456.3 1054,451.4 
	1041.4,449.4 "/>
<polyline fill="none" stroke="#010101" stroke-width="0.5" stroke-miterlimit="10" points="1195.3,466.4 1203.5,462.6 1204.3,460.3 
	1204.3,458.2 1201.3,451.2 1197.1,446.2 1193.6,446.2 1188.7,448.7 1179,453.6 1173.8,457.3 1171.3,461.3 1167.5,471.5 
	1165.6,480.3 1166.2,486.8 1170.6,494.6 1181.4,513.1 1190,525.1 1204.3,536.9 1212.3,540.5 1211.5,540.3 1223.9,542.4 
	1237.1,541.7 1250.8,539 1260.9,534.6 "/>
<polyline fill="none" stroke="#010101" stroke-width="0.5" stroke-miterlimit="10" points="1168.5,379.3 1166.8,381.8 1160.5,388.1 
	1152.3,397.1 1147.5,403 1149.1,404.1 1134.6,394.4 1116.5,385.8 1103.3,381.1 1096.7,379.3 1086.2,377.8 1087.1,371.9 
	1090.4,361.8 1095.9,351.7 1100.3,343.5 1108.7,331.9 "/>
<polyline fill="none" stroke="#010101" stroke-width="0.5" stroke-miterlimit="10" points="1203.2,641.5 1220.9,627.8 1231.9,620.7 
	1243.2,637.1 1249.8,645.9 1258.4,640.9 1274.6,630.1 1280.3,639.6 1284.9,648.2 1287.9,654.8 1287.9,659.6 1286.6,665.3 
	1283.2,670.3 1278.6,676 1276.5,681.1 1275.5,685.1 1274.8,692.2 1273.3,698.5 1268.5,706.8 1261.5,715 "/>
<polyline fill="none" stroke="#010101" stroke-width="0.5" stroke-miterlimit="10" points="1075.9,211.7 1064.5,207.1 1052.9,201.6 
	1050,198 1036.7,191.3 1036.7,190.5 1032.3,185.8 1016.1,171.3 1020.9,166.3 1022.9,162.3 1023.7,161.2 1039.1,170 1059.1,176.1 
	1069.8,177.2 1078,177.2 1079.9,145.4 1083.3,93.7 "/>
<polyline fill="none" stroke="#010101" stroke-width="0.5" stroke-miterlimit="10" points="1287.9,734.3 1293.8,718.8 1293.8,718.1 
	1295.7,709.3 1295.7,700.6 1298.2,690.1 1303.4,680.4 1306.6,670.1 1308.3,660.4 1307.6,646.1 1303.4,633.7 1296.5,621.7 
	1284.3,608.2 1271,598.4 1262.2,594.6 1251.5,591.8 1245.6,590.8 1237.1,590.8 1227.5,590.8 1227.5,570.4 1227.4,541.5 
	1224.3,523.8 1217.8,508.7 1243,495 "/>
<polyline fill="none" stroke="#010101" stroke-width="0.5" stroke-miterlimit="10" points="1533.9,571.8 1532,577.5 1525.3,581.5 
	1484.3,581.5 1466.2,583.4 1459,588.5 1457.7,594.2 1460.3,601.9 1468,614.6 1475.6,620.7 1493.3,630.1 1503.2,636.5 1512,646.8 
	1517.3,655.8 1519.4,664.2 1515.2,672.9 1499.6,690.6 1480.5,699 1468,703.8 1440.9,707 1418.4,711 1409.9,715 1402.4,722.3 
	1402.4,734.3 1406.2,746.9 1406.2,754.9 1404.3,761.3 1393.7,770.5 1365.3,783.8 1357.7,793.7 1354.4,805 1353.7,803.4 
	1363.7,822.5 1376.7,831.1 1387.9,837.7 1393.7,846.3 1396.5,855.8 1393.7,869.2 "/>
<polyline fill="none" stroke="#010101" stroke-width="0.5" stroke-miterlimit="10" points="1086.2,377.8 1089.4,364.7 1100.9,366.2 
	1113.4,363.1 1120.9,360.5 1116.5,353.8 1099.3,347.5 1108.7,331.9 1135.7,351.3 1135.7,352.5 1152.3,368.3 1156.3,366.2 
	1198,349.8 "/>
<polyline fill="none" stroke="#010101" stroke-width="0.5" stroke-miterlimit="10" points="1022,168.6 1045,182.7 1069.8,196.1 
	1103.5,216.8 1119.9,231.1 1136.3,250.5 1154.4,285 1182.6,342.6 1237.4,454 1273.5,523.9 1312.1,581.1 1353.7,627.4 1366.8,639.6 
	1389.5,649.3 1433.7,664.9 1474.4,677.9 1532.2,696.2 1600,717.5 1634.8,732.4 "/>
<polyline fill="none" stroke="#010101" stroke-width="0.5" stroke-miterlimit="10" points="1524.1,662.5 1542.6,661.3 1547.6,663.8 
	1549.9,668 1549.9,674.3 1535.6,692.9 1528.9,704.7 1526.2,715.8 1526.2,726.1 1535.6,729.9 1547.6,729.9 1561.5,727.6 
	1582.4,715.8 1597.5,707.8 1615.8,704.7 1623.8,704.7 1637.5,711 1640.9,718.8 1641.5,729.9 "/>
</svg>
